<svg width="142" height="46" viewBox="0 0 142 46" fill="none" xmlns="http://www.w3.org/2000/svg">
<path d="M141.783 35.9063C139.193 35.8974 136.598 35.8841 134.008 35.8796C131.765 35.8752 129.517 35.8841 127.274 35.8663C127.065 35.8663 126.86 35.7016 126.656 35.6126C126.847 35.5325 127.029 35.3945 127.225 35.3812C128.756 35.2699 129.513 33.9526 128.867 32.4261C128.231 30.9218 127.55 29.4354 126.891 27.9445C125.013 23.7076 123.131 19.4708 121.248 15.2339C121.173 15.0604 121.075 14.8957 120.946 14.6465C119.842 17.0408 118.752 19.3373 117.728 21.6604C116.184 25.1674 114.671 28.6832 113.202 32.2169C112.975 32.7643 112.864 33.4719 112.993 34.0371C113.197 34.9183 113.923 35.3545 114.857 35.3901C115 35.3945 115.138 35.5503 115.276 35.6349C115.129 35.7194 114.986 35.8129 114.831 35.8796C114.755 35.9108 114.657 35.8841 114.573 35.8841C106.878 35.8841 99.1873 35.8841 91.4925 35.8752C91.2255 35.8752 90.7671 36.0665 90.8516 35.4034C91.0563 35.3945 91.27 35.3812 91.4791 35.3767C93.0858 35.35 94.4209 34.1885 94.4432 32.5863C94.501 28.5764 94.461 24.5665 94.461 20.5033C89.4008 20.5033 84.3584 20.5033 79.2404 20.5033C79.227 20.7213 79.2048 20.9483 79.2048 21.1797C79.2003 24.8425 79.2003 28.5052 79.2048 32.1679C79.2048 34.0816 80.393 35.3055 82.3156 35.3723C82.6138 35.3812 82.9253 35.35 82.7562 35.8485C82.596 35.8618 82.4269 35.8841 82.2578 35.8841C77.8563 35.8841 73.4548 35.8885 69.0488 35.8841C68.7773 35.8841 68.3768 35.9998 68.5147 35.3767C68.7373 35.3767 68.9731 35.3856 69.2046 35.3767C70.8067 35.3011 72.0885 34.006 72.0929 32.3994C72.1018 23.6987 72.1018 15.0025 72.0929 6.30184C72.0929 4.62847 70.7889 3.35119 69.1067 3.30668C68.8307 3.29778 68.3946 3.45355 68.4969 2.83938C73.2545 2.83938 77.9987 2.83938 82.7384 2.83938C82.7785 2.88834 82.8141 2.93284 82.8541 2.9818C82.7073 3.08861 82.5693 3.28443 82.418 3.29778C80.1527 3.5025 79.2092 4.52166 79.2092 6.79585C79.2092 10.3696 79.2092 13.9477 79.2092 17.5215C79.2092 17.7796 79.2092 18.0377 79.2092 18.3448C84.305 18.3448 89.3474 18.3448 94.4832 18.3448C94.4832 18.1178 94.4832 17.8864 94.4832 17.6594C94.4832 14.0189 94.4832 10.3785 94.4832 6.73799C94.4832 4.57506 93.4329 3.47135 91.2566 3.30668C91.0964 3.29333 90.9451 3.11976 90.7893 3.02185C90.8205 2.95955 90.8561 2.90169 90.8872 2.83938C95.6314 2.83938 100.371 2.83938 105.115 2.83938C105.151 2.89279 105.187 2.95064 105.222 3.00405C105.071 3.10641 104.928 3.28888 104.773 3.30223C102.57 3.4847 101.568 4.54836 101.568 6.74689C101.568 15.1627 101.568 23.5785 101.568 31.9944C101.568 34.184 102.77 35.3322 104.973 35.3901C107.345 35.4524 108.876 34.3309 109.806 32.2213C113.353 24.1794 116.918 16.1374 120.461 8.09093C121.351 6.06597 122.183 4.00985 123.086 1.86473C123.193 1.98934 123.407 2.15401 123.509 2.37208C125.111 5.85235 126.696 9.33706 128.284 12.8218C131.231 19.2972 134.177 25.7771 137.123 32.2525C138.035 34.2552 139.495 35.4435 141.792 35.3901C141.783 35.5547 141.783 35.7283 141.783 35.9063Z" fill="white"/>
<path d="M141.783 5.03346C141.725 5.28268 141.672 5.53636 141.605 5.78113C141.111 7.58802 139.282 8.78965 137.462 8.51372C135.508 8.21554 134.168 6.62672 134.204 4.64627C134.239 2.76372 135.744 1.1749 137.648 1.01024C139.518 0.85002 141.236 2.1095 141.645 3.94754C141.685 4.13446 141.738 4.32138 141.783 4.50385C141.783 4.68632 141.783 4.85989 141.783 5.03346Z" fill="white"/>
<path d="M6.65344 2.22077C6.738 2.02495 6.76915 1.71342 6.92047 1.64221C10.2984 -0.0222599 13.7519 -0.720983 17.3301 0.996897C18.9723 1.78463 20.2496 3.03966 21.38 4.44156C23.3427 6.87596 24.66 9.66195 25.8216 12.5414C28.2382 18.5362 30.6637 24.5265 33.1203 30.5035C34.5267 33.9303 36.3113 37.1391 38.8615 39.8628C40.7262 41.8522 42.8624 43.4543 45.6173 43.9439C46.672 44.1308 47.7668 44.0996 49.0352 44.1798C48.8127 44.3845 48.6658 44.607 48.4611 44.696C42.6043 47.215 36.565 46.049 32.0166 41.5851C28.6565 38.2918 26.5025 34.2864 24.8781 29.9338C22.7686 24.2906 20.668 18.643 18.4561 13.0354C17.3123 10.1293 15.7724 7.41002 13.6184 5.10468C12.2877 3.68053 10.7746 2.51005 8.77186 2.23413C8.13545 2.14512 7.47678 2.22077 6.65344 2.22077Z" fill="white"/>
<path d="M62.4623 2.62576C62.3332 4.14782 62.2175 5.57642 62.0929 7.00057C62.0306 7.73934 61.9683 8.47812 61.8792 9.21245C61.8659 9.34151 61.719 9.45277 61.6345 9.57293C61.5544 9.46612 61.4075 9.36376 61.4075 9.25695C61.3585 6.73354 59.1956 4.78423 56.6099 4.31694C54.9054 4.00985 53.2231 4.04101 51.5942 4.66852C49.369 5.52746 48.154 7.68149 48.6792 9.7376C48.9462 10.7835 49.6716 11.4866 50.4994 12.0518C52.6757 13.5383 54.9054 14.9446 57.0816 16.4222C59.0799 17.7796 61.1627 19.0435 62.9785 20.619C65.2927 22.6261 66.6857 25.2653 66.708 28.4073C66.7392 32.4439 65.048 35.7239 61.6834 37.9268C56.8102 41.1134 51.5453 41.5317 46.2314 39.2308C39.9741 36.5249 37.9936 29.1728 41.772 23.3382C42.0302 22.9377 42.3195 22.5549 42.5865 22.1722C43.1116 22.279 43.0671 22.5104 42.858 22.8665C41.9545 24.3841 41.3582 26.0174 41.2424 27.7887C40.9487 32.3015 43.7169 36.3469 48.0428 37.731C50.2947 38.452 52.5778 38.5188 54.8653 37.8734C60.1703 36.3825 61.8926 30.7393 58.3456 26.507C57.2196 25.1629 55.7554 24.255 54.3313 23.2937C51.9636 21.7004 49.5826 20.1294 47.2239 18.5228C45.0698 17.0586 43.4855 15.1716 43.1606 12.488C42.4975 7.08067 45.7908 3.0085 50.8777 2.29642C53.4056 1.94484 55.9201 2.26082 58.4346 2.46554C59.4982 2.55455 60.5619 2.5768 61.6256 2.62576C61.8703 2.63466 62.1285 2.62576 62.4623 2.62576Z" fill="white"/>
<path d="M14.2814 10.1693C14.7888 11.5756 15.2694 12.8485 15.6967 14.1436C15.7634 14.3438 15.6076 14.642 15.5053 14.8734C12.9997 20.6635 10.4763 26.4446 7.97955 32.2391C7.79708 32.6664 7.65022 33.1648 7.69027 33.6143C7.79263 34.7626 8.478 35.2477 10.2404 35.4346C10.0179 35.6438 9.90215 35.7728 9.76419 35.8663C9.70633 35.9063 9.59507 35.8752 9.50606 35.8752C6.54205 35.8752 3.57804 35.8796 0.614032 35.8618C0.40486 35.8618 0.200139 35.6972 -0.0090332 35.6082C0.177886 35.528 0.364806 35.3945 0.556176 35.3723C2.44762 35.172 3.72936 34.1484 4.47704 32.4394C6.96484 26.7829 9.44375 21.1219 11.9227 15.4609C12.5769 13.9655 13.2311 12.4702 13.8853 10.9748C14.001 10.7479 14.1123 10.5253 14.2814 10.1693Z" fill="white"/>
</svg>
