<?xml version="1.0" encoding="utf-8"?>
<!-- Generator: Adobe Illustrator 24.2.1, SVG Export Plug-In . SVG Version: 6.00 Build 0)  -->
<svg version="1.1" id="Layer_1" xmlns="http://www.w3.org/2000/svg" xmlns:xlink="http://www.w3.org/1999/xlink" x="0px" y="0px"
	 viewBox="0 0 142 46" enable-background="new 0 0 142 46" xml:space="preserve">
<path d="M141.8,35.9c-2.6,0-5.2,0-7.8,0c-2.2,0-4.5,0-6.7,0c-0.2,0-0.4-0.2-0.6-0.3c0.2-0.1,0.4-0.2,0.6-0.2c1.5-0.1,2.3-1.4,1.6-3
	c-0.6-1.5-1.3-3-2-4.5c-1.9-4.2-3.8-8.5-5.6-12.7c-0.1-0.2-0.2-0.3-0.3-0.6c-1.1,2.4-2.2,4.7-3.2,7c-1.5,3.5-3.1,7-4.5,10.6
	c-0.2,0.5-0.3,1.3-0.2,1.8c0.2,0.9,0.9,1.3,1.9,1.4c0.1,0,0.3,0.2,0.4,0.2c-0.1,0.1-0.3,0.2-0.4,0.2c-0.1,0-0.2,0-0.3,0
	c-7.7,0-15.4,0-23.1,0c-0.3,0-0.7,0.2-0.6-0.5c0.2,0,0.4,0,0.6,0c1.6,0,2.9-1.2,3-2.8c0.1-4,0-8,0-12.1c-5.1,0-10.1,0-15.2,0
	c0,0.2,0,0.4,0,0.7c0,3.7,0,7.3,0,11c0,1.9,1.2,3.1,3.1,3.2c0.3,0,0.6,0,0.4,0.5c-0.2,0-0.3,0-0.5,0c-4.4,0-8.8,0-13.2,0
	c-0.3,0-0.7,0.1-0.5-0.5c0.2,0,0.5,0,0.7,0c1.6-0.1,2.9-1.4,2.9-3c0-8.7,0-17.4,0-26.1c0-1.7-1.3-3-3-3c-0.3,0-0.7,0.1-0.6-0.5
	c4.8,0,9.5,0,14.2,0c0,0,0.1,0.1,0.1,0.1c-0.1,0.1-0.3,0.3-0.4,0.3c-2.3,0.2-3.2,1.2-3.2,3.5c0,3.6,0,7.2,0,10.7c0,0.3,0,0.5,0,0.8
	c5.1,0,10.1,0,15.3,0c0-0.2,0-0.5,0-0.7c0-3.6,0-7.3,0-10.9c0-2.2-1.1-3.3-3.2-3.4c-0.2,0-0.3-0.2-0.5-0.3c0-0.1,0.1-0.1,0.1-0.2
	c4.7,0,9.5,0,14.2,0c0,0.1,0.1,0.1,0.1,0.2c-0.2,0.1-0.3,0.3-0.4,0.3c-2.2,0.2-3.2,1.2-3.2,3.4c0,8.4,0,16.8,0,25.2
	c0,2.2,1.2,3.3,3.4,3.4c2.4,0.1,3.9-1.1,4.8-3.2c3.5-8,7.1-16.1,10.7-24.1c0.9-2,1.7-4.1,2.6-6.2c0.1,0.1,0.3,0.3,0.4,0.5
	c1.6,3.5,3.2,7,4.8,10.4c2.9,6.5,5.9,13,8.8,19.4c0.9,2,2.4,3.2,4.7,3.1C141.8,35.6,141.8,35.7,141.8,35.9z"/>
<path d="M141.8,5c-0.1,0.2-0.1,0.5-0.2,0.7c-0.5,1.8-2.3,3-4.1,2.7c-2-0.3-3.3-1.9-3.3-3.9c0-1.9,1.5-3.5,3.4-3.6
	c1.9-0.2,3.6,1.1,4,2.9c0,0.2,0.1,0.4,0.1,0.6C141.8,4.7,141.8,4.9,141.8,5z"/>
<path d="M6.7,2.2C6.7,2,6.8,1.7,6.9,1.6C10.3,0,13.8-0.7,17.3,1c1.6,0.8,2.9,2,4,3.4c2,2.4,3.3,5.2,4.4,8.1c2.4,6,4.8,12,7.3,18
	c1.4,3.4,3.2,6.6,5.7,9.4c1.9,2,4,3.6,6.8,4.1c1.1,0.2,2.1,0.2,3.4,0.2c-0.2,0.2-0.4,0.4-0.6,0.5C42.6,47.2,36.6,46,32,41.6
	c-3.4-3.3-5.5-7.3-7.1-11.7c-2.1-5.6-4.2-11.3-6.4-16.9c-1.1-2.9-2.7-5.6-4.8-7.9c-1.3-1.4-2.8-2.6-4.8-2.9C8.1,2.1,7.5,2.2,6.7,2.2
	z"/>
<path d="M62.5,2.6c-0.1,1.5-0.2,3-0.4,4.4C62,7.7,62,8.5,61.9,9.2c0,0.1-0.2,0.2-0.2,0.4c-0.1-0.1-0.2-0.2-0.2-0.3
	c0-2.5-2.2-4.5-4.8-4.9c-1.7-0.3-3.4-0.3-5,0.4c-2.2,0.9-3.4,3-2.9,5.1c0.3,1,1,1.7,1.8,2.3c2.2,1.5,4.4,2.9,6.6,4.4
	c2,1.4,4.1,2.6,5.9,4.2c2.3,2,3.7,4.6,3.7,7.8c0,4-1.7,7.3-5,9.5c-4.9,3.2-10.1,3.6-15.5,1.3C40,36.5,38,29.2,41.8,23.3
	c0.3-0.4,0.5-0.8,0.8-1.2c0.5,0.1,0.5,0.3,0.3,0.7c-0.9,1.5-1.5,3.2-1.6,4.9c-0.3,4.5,2.5,8.6,6.8,9.9c2.3,0.7,4.5,0.8,6.8,0.1
	c5.3-1.5,7-7.1,3.5-11.4c-1.1-1.3-2.6-2.3-4-3.2c-2.4-1.6-4.7-3.2-7.1-4.8c-2.2-1.5-3.7-3.4-4.1-6C42.5,7.1,45.8,3,50.9,2.3
	c2.5-0.4,5,0,7.6,0.2c1.1,0.1,2.1,0.1,3.2,0.2C61.9,2.6,62.1,2.6,62.5,2.6z"/>
<path d="M14.3,10.2c0.5,1.4,1,2.7,1.4,4c0.1,0.2-0.1,0.5-0.2,0.7c-2.5,5.8-5,11.6-7.5,17.4c-0.2,0.4-0.3,0.9-0.3,1.4
	c0.1,1.1,0.8,1.6,2.6,1.8c-0.2,0.2-0.3,0.3-0.5,0.4c-0.1,0-0.2,0-0.3,0c-3,0-5.9,0-8.9,0c-0.2,0-0.4-0.2-0.6-0.3
	c0.2-0.1,0.4-0.2,0.6-0.2c1.9-0.2,3.2-1.2,3.9-2.9c2.5-5.7,5-11.3,7.4-17c0.7-1.5,1.3-3,2-4.5C14,10.7,14.1,10.5,14.3,10.2z"/>
</svg>
